<?xml version="1.0" encoding="UTF-8"?>
<svg id="this_that" data-name="this that" xmlns="http://www.w3.org/2000/svg" viewBox="0 0 800 446.6">
  <defs>
    <style>
      .cls-1 {
        fill: #2e2b26;
      }
    </style>
  </defs>
  <path class="cls-1" d="M58.72,250.11c105.41.72,210.84-2.4,316.02-9.42,29.77-1.98,59.51-4.29,89.23-6.88,5.05-.44,8.07-6.3,4.24-10.24-27.79-28.63-57.15-55.71-87.98-81.04-15.11-12.41-30.56-24.41-46.31-35.98-8.04-5.9-16.16-11.69-24.36-17.37-7.55-5.22-15.16-10.7-23.97-13.61-8.33-2.74-17.66-2.37-25.03,2.71-6.99,4.82-11.48,12.17-15.57,19.43-9.55,16.94-17.12,35.09-22.47,53.78-9.41,32.88-16.59,73.14,7.24,101.56,19.01,22.66,50.27,32.2,78.08,38.39,31.26,6.95,70.5,14.52,91.93-15.94,10.15-14.44,14.34-33.31,17.11-50.44,3.25-20.03,3.89-40.41,1.56-60.59-1.12-9.72-2.8-19.38-5.19-28.87-2-7.94-4.27-16.82-10.41-22.68-12.31-11.74-32.42-2.2-44.96,4.6-26.87,14.56-47.09,40.51-56.04,69.59-9.15,29.74-5.08,61.92,11.42,88.32,16.25,26.01,42.93,45.92,72.9,52.96,30.26,7.12,69.02,1.56,86.03-27.55,9.65-16.52,12.21-37.23,15.86-55.7,4.11-20.77,7.65-41.66,10.59-62.63,2.97-21.18,5.39-42.43,7.2-63.74.88-10.39,1.61-20.79,2.2-31.19.54-9.62,1.85-19.74.39-29.33-3.11-20.35-23.9-21.49-40.44-23.74-18.1-2.46-36.41-4.04-54.59-1.46-17.57,2.49-33.93,9.39-47.32,21.13-12.54,10.99-21.79,25.54-28.48,40.7-7.14,16.18-12.49,33.57-14.42,51.18-2.06,18.82,2.33,36.6,14.44,51.3,11.47,13.94,27.41,24.51,42.27,34.49,15.88,10.66,32.43,20.28,49.54,28.82,16.79,8.38,34.11,15.73,51.79,22,17.73,6.28,36.48,12.65,55.15,15.34,8.75,1.26,17.85.67,25.37-4.42,6.04-4.09,10.42-10.2,13.45-16.76,3.51-7.6,5.69-15.66,7.93-23.7,2.85-10.22,5.59-20.48,7.76-30.87,7.29-34.87,7.57-73.5-14.64-103.34-9.32-12.52-21.79-22.46-36.87-27.01-16.57-5.01-34.71-3.08-50.66,3.22-34.4,13.6-55.96,44.42-73.23,75.64-16.28,29.44-33.16,62.42-32.53,96.97.3,16.41,5.39,32.12,15.79,44.91,10.25,12.6,24.95,20.47,39.98,25.97,7.87,2.88,15.96,5.11,24.09,7.15,7.87,1.97,15.9,4.14,24.05,4.43,8.4.3,17.07-2.02,22.91-8.37s7.84-14.17,9.7-21.97c9.09-38.24,12.61-80.34,5.4-119.21-3.01-16.24-9.51-32.78-22.38-43.73-13.05-11.11-29.78-15.45-46.5-17.17-35.86-3.69-74.2,1.11-104.21,22.34-25.03,17.71-42.92,43.6-54.86,71.55-6.29,14.71-11.16,29.97-14.66,45.58-3.82,17.05-7.22,35.29-5.97,52.81,1.17,16.42,7.5,31.45,19.1,43.2,10.54,10.69,23.97,17.88,37.73,23.52,14.88,6.1,30.77,10.88,46.52,14.12,18.14,3.73,36.5,2.57,49.74-11.81,5.97-6.48,10.5-14.23,14.97-21.77,5.18-8.74,10.08-17.64,14.69-26.7,9.17-18.02,17.2-36.63,24.05-55.65,6.17-17.14,13.13-37.4,1.76-54.03-4.77-6.97-11.36-12.22-18.24-16.99-7.7-5.34-15.6-10.43-23.61-15.3-28.92-17.58-66.79-33.84-99.71-17.13-24.19,12.28-44.07,42.42-31.59,69.47,6.97,15.12,22.49,23.61,37.6,28.67,17.8,5.97,36.85,9.01,55.53,10.36,39.15,2.83,79.02-3.57,115.26-18.67,18.59-7.75,36.28-17.36,54.35-26.22,17.98-8.81,36.38-16.17,55.84-21.02,37.86-9.42,77.08-10.71,115.89-12.01,7.7-.26,7.74-12.26,0-12-35.96,1.2-72.17,2.51-107.52,9.81-17.57,3.63-34.61,8.94-51.11,16-16.62,7.11-32.54,15.7-48.73,23.7-32.37,15.99-66.26,26.75-102.5,28.69-17.72.95-35.6.09-53.11-2.86-15.5-2.61-32.26-5.94-45.88-14.17-11.21-6.77-18.85-17.94-17.34-31.38,1.35-12.07,9-22.83,18.01-30.54,24.92-21.33,58.98-12.04,85.19,1.79,14.36,7.58,28.91,16.34,41.75,26.3,6.02,4.67,11.67,10.43,13.45,18.08,2.06,8.9-.75,18.25-3.53,26.68-11.23,34.06-26.83,67.03-45.93,97.39-4.19,6.66-8.91,13.49-15.87,17.51-7.05,4.08-15.47,4.35-23.37,3.39-14.62-1.79-29.51-6.67-43.38-11.52-25.43-8.9-51.96-23.82-57.21-52.59-2.92-15.98.16-33.15,3.27-48.9,2.76-13.98,6.56-27.77,11.53-41.12,9.61-25.8,24.1-50.45,44.96-68.75,24.59-21.57,55.87-29.12,88.02-28.82,15.45.15,31.97,1.1,46.18,7.78,14.08,6.62,22.89,18.67,27.39,33.32,4.83,15.72,5.65,32.57,5.86,48.91.23,18.52-1.12,37.08-4.2,55.34-1.51,8.95-3.2,18.02-5.76,26.74-2.12,7.23-5.64,13.66-13.66,15.06-7.13,1.25-14.63-.81-21.51-2.47s-14.28-3.53-21.3-5.73c-13.83-4.32-27.71-10.28-38.14-20.64-10.31-10.24-15.86-23.99-16.64-38.42-1.65-30.84,12.9-60.79,27.16-87.21,15.27-28.29,32.91-58.05,62.41-73.39,13.5-7.02,29.55-10.95,44.73-8.24,14.16,2.53,26.28,10.44,35.27,21.55,20.91,25.83,21.48,60.75,15.44,91.9-3.32,17.1-7.52,34.69-13.48,51.08-2.14,5.88-5.1,12.17-10.06,16.2-6.55,5.31-15.2,4.45-22.92,2.81-33.35-7.1-66.05-19.21-96.57-34.3-15.32-7.57-30.21-16.02-44.57-25.29s-28.02-18.34-39.86-29.86c-12.32-12-18.62-26.29-17.92-43.62s5.83-33.33,12.06-48.54c5.54-13.53,13.12-26.58,23.45-37.01,11.16-11.26,25.17-18.22,40.69-21.21,16.27-3.14,33.23-1.99,49.58-.02,8.16.98,16.55,1.86,24.57,3.73,8.43,1.96,11.75,6.73,11.94,15.26.42,18.62-1.71,37.65-3.31,56.19-1.66,19.26-3.79,38.49-6.47,57.64s-5.79,38-9.41,56.88c-3.31,17.25-5.81,35.73-12.34,52.13-11.59,29.13-46.19,35.89-74.06,29.92-26.87-5.75-51.13-22.65-66.26-45.55s-20.03-51.21-12.69-78.1c7.09-25.97,24.18-49.37,47.29-63.34,5.9-3.57,12.14-6.53,18.69-8.7,7.56-2.5,14.73-4.04,18.99,4.06,3.63,6.92,5,15.48,6.52,23.06,1.77,8.85,2.94,17.8,3.51,26.81,1.17,18.54-.02,37.24-3.81,55.44-3.04,14.65-7,31.27-17.53,42.53-10.88,11.63-26.82,13.29-41.9,12.05-14.29-1.17-28.65-4.38-42.54-7.89-23.95-6.06-51.64-15.42-66.25-36.84-9.12-13.37-10.64-29-9.24-44.8,1.55-17.49,5.52-34.87,11.07-51.51s12.58-32.44,21.8-47c3.9-6.16,9.03-12.02,16.96-11.7,8.48.35,16.28,6.04,23.02,10.65,29.53,20.16,57.99,41.89,85.26,65.01,26.29,22.28,51.45,45.86,75.45,70.58,1.41-3.41,2.83-6.83,4.24-10.24-105.01,9.18-210.35,14.54-315.75,15.99-29.83.41-59.66.51-89.5.3-7.72-.05-7.73,11.95,0,12h0Z"/>
</svg>